# xmcd
# 
# Track frame offsets:
#     150
#     17855
#     37380
#     52192
#     71290
#     90050
#     106535
#     122630
#     140420
#     158520
#     174400
#     194545
# 
# Disc length: 2754
# 
# Revision: 7
# Processed by: cddbd v1.5.2PL0 Copyright (c) Steve Scherf et al.
# Submitted via: BonkEnc v1.0.8
# 
DISCID=970ac00c
DTITLE=Roberta Miranda - Volume 9 - 1996
DYEAR=1996
DGENRE=Ballad
TTITLE0=Um Minuto a Mais
TTITLE1=Eu Te Amo, Te Amo, Te Amo
TTITLE2=Pimenta Malagueta
TTITLE3=Caminhos
TTITLE4=Amor Incandescente
TTITLE5=Ninguém me Viu Chorar
TTITLE6=Pra Ninguém Ficar Parado
TTITLE7=O Sol da Manhã
TTITLE8=Dança das Chamas
TTITLE9=Chuva de Amor
TTITLE10=Vai Andorinha
TTITLE11=Chamego e Remelexo
EXTD=0630139592 YEAR: 1996
EXTT0=
EXTT1=
EXTT2=
EXTT3=
EXTT4=
EXTT5=
EXTT6=
EXTT7=
EXTT8=
EXTT9=
EXTT10=
EXTT11=
PLAYORDER=
